<svg width="158" height="175" viewBox="0 0 158 175" fill="none" xmlns="http://www.w3.org/2000/svg">
<circle cx="50" cy="125" r="50" fill="#00E29C"/>
<circle cx="108" cy="50" r="50" fill="#FF007B"/>
<circle cx="108" cy="115" r="50" fill="#FFB600"/>
<circle cx="50" cy="65" r="50" fill="#A463FF"/>
<g filter="url(#filter0_d_20_7)">
<path d="M50.372 61.26L45.528 81H38.78L36.064 68.904L33.292 81H26.544L21.756 61.26H27.692L29.988 74.756L33.096 61.26H39.116L42.14 74.644L44.436 61.26H50.372ZM70.3688 61.26V81H64.8808V73.076H58.1888V81H52.7008V61.26H58.1888V68.68H64.8808V61.26H70.3688ZM85.9974 77.78H78.9974L77.9334 81H72.1654L79.3614 61.26H85.6894L92.8574 81H87.0614L85.9974 77.78ZM84.6254 73.58L82.4974 67.196L80.3974 73.58H84.6254ZM109.514 61.26V65.628H104.25V81H98.7621V65.628H93.5541V61.26H109.514ZM112.889 61.26H118.433L115.213 69.156H111.545L112.889 61.26ZM128.672 81.196C126.376 81.196 124.491 80.6547 123.016 79.572C121.542 78.4707 120.748 76.9027 120.636 74.868H126.488C126.544 75.5587 126.75 76.0627 127.104 76.38C127.459 76.6973 127.916 76.856 128.476 76.856C128.98 76.856 129.391 76.7347 129.708 76.492C130.044 76.2307 130.212 75.876 130.212 75.428C130.212 74.8493 129.942 74.4013 129.4 74.084C128.859 73.7667 127.982 73.412 126.768 73.02C125.48 72.5907 124.435 72.18 123.632 71.788C122.848 71.3773 122.158 70.7893 121.56 70.024C120.982 69.24 120.692 68.2227 120.692 66.972C120.692 65.7027 121.01 64.62 121.644 63.724C122.279 62.8093 123.156 62.1187 124.276 61.652C125.396 61.1853 126.666 60.952 128.084 60.952C130.38 60.952 132.21 61.4933 133.572 62.576C134.954 63.64 135.691 65.1427 135.784 67.084H129.82C129.802 66.4867 129.615 66.0387 129.26 65.74C128.924 65.4413 128.486 65.292 127.944 65.292C127.534 65.292 127.198 65.4133 126.936 65.656C126.675 65.8987 126.544 66.244 126.544 66.692C126.544 67.0653 126.684 67.392 126.964 67.672C127.263 67.9333 127.627 68.1667 128.056 68.372C128.486 68.5587 129.12 68.8013 129.96 69.1C131.211 69.5293 132.238 69.9587 133.04 70.388C133.862 70.7987 134.562 71.3867 135.14 72.152C135.738 72.8987 136.036 73.8507 136.036 75.008C136.036 76.184 135.738 77.2387 135.14 78.172C134.562 79.1053 133.712 79.8427 132.592 80.384C131.491 80.9253 130.184 81.196 128.672 81.196ZM40.852 123H35.364L28.056 111.968V123H22.568V103.26H28.056L35.364 114.432V103.26H40.852V123ZM49.4662 107.656V110.876H55.7662V115.048H49.4662V118.604H56.6062V123H43.9782V103.26H56.6062V107.656H49.4662ZM87.122 103.26L82.278 123H75.53L72.814 110.904L70.042 123H63.294L58.506 103.26H64.442L66.738 116.756L69.846 103.26H75.866L78.89 116.644L81.186 103.26H87.122ZM96.8988 123.196C94.6028 123.196 92.7175 122.655 91.2428 121.572C89.7681 120.471 88.9748 118.903 88.8628 116.868H94.7148C94.7708 117.559 94.9761 118.063 95.3308 118.38C95.6855 118.697 96.1428 118.856 96.7028 118.856C97.2068 118.856 97.6175 118.735 97.9348 118.492C98.2708 118.231 98.4388 117.876 98.4388 117.428C98.4388 116.849 98.1681 116.401 97.6268 116.084C97.0855 115.767 96.2081 115.412 94.9948 115.02C93.7068 114.591 92.6615 114.18 91.8588 113.788C91.0748 113.377 90.3841 112.789 89.7868 112.024C89.2081 111.24 88.9188 110.223 88.9188 108.972C88.9188 107.703 89.2361 106.62 89.8708 105.724C90.5055 104.809 91.3828 104.119 92.5028 103.652C93.6228 103.185 94.8921 102.952 96.3108 102.952C98.6068 102.952 100.436 103.493 101.799 104.576C103.18 105.64 103.917 107.143 104.011 109.084H98.0468C98.0281 108.487 97.8415 108.039 97.4868 107.74C97.1508 107.441 96.7121 107.292 96.1708 107.292C95.7601 107.292 95.4241 107.413 95.1628 107.656C94.9015 107.899 94.7708 108.244 94.7708 108.692C94.7708 109.065 94.9108 109.392 95.1908 109.672C95.4895 109.933 95.8535 110.167 96.2828 110.372C96.7121 110.559 97.3468 110.801 98.1868 111.1C99.4375 111.529 100.464 111.959 101.267 112.388C102.088 112.799 102.788 113.387 103.367 114.152C103.964 114.899 104.263 115.851 104.263 117.008C104.263 118.184 103.964 119.239 103.367 120.172C102.788 121.105 101.939 121.843 100.819 122.384C99.7175 122.925 98.4108 123.196 96.8988 123.196ZM118.165 101.804C120.2 101.804 121.833 102.327 123.065 103.372C124.297 104.417 124.913 105.911 124.913 107.852C124.913 109.551 124.344 110.895 123.205 111.884C122.085 112.873 120.601 113.387 118.753 113.424L118.613 115.468H113.769L113.601 109.896H115.617C116.887 109.896 117.857 109.756 118.529 109.476C119.201 109.177 119.537 108.655 119.537 107.908C119.537 107.404 119.397 107.012 119.117 106.732C118.856 106.433 118.492 106.284 118.025 106.284C117.503 106.284 117.101 106.443 116.821 106.76C116.56 107.059 116.429 107.469 116.429 107.992H111.249C111.212 106.853 111.445 105.817 111.949 104.884C112.472 103.932 113.256 103.185 114.301 102.644C115.347 102.084 116.635 101.804 118.165 101.804ZM116.233 123.224C115.263 123.224 114.479 122.963 113.881 122.44C113.303 121.899 113.013 121.217 113.013 120.396C113.013 119.575 113.303 118.893 113.881 118.352C114.479 117.811 115.263 117.54 116.233 117.54C117.185 117.54 117.951 117.811 118.529 118.352C119.127 118.893 119.425 119.575 119.425 120.396C119.425 121.199 119.127 121.871 118.529 122.412C117.951 122.953 117.185 123.224 116.233 123.224Z" fill="white"/>
</g>
<defs>
<filter id="filter0_d_20_7" x="18.756" y="60.952" width="120.28" height="69.272" filterUnits="userSpaceOnUse" color-interpolation-filters="sRGB">
<feFlood flood-opacity="0" result="BackgroundImageFix"/>
<feColorMatrix in="SourceAlpha" type="matrix" values="0 0 0 0 0 0 0 0 0 0 0 0 0 0 0 0 0 0 127 0" result="hardAlpha"/>
<feOffset dy="4"/>
<feGaussianBlur stdDeviation="1.5"/>
<feComposite in2="hardAlpha" operator="out"/>
<feColorMatrix type="matrix" values="0 0 0 0 0 0 0 0 0 0 0 0 0 0 0 0 0 0 0.07 0"/>
<feBlend mode="normal" in2="BackgroundImageFix" result="effect1_dropShadow_20_7"/>
<feBlend mode="normal" in="SourceGraphic" in2="effect1_dropShadow_20_7" result="shape"/>
</filter>
</defs>
</svg>
